<svg xmlns="http://www.w3.org/2000/svg" viewBox="0 0 64 64" width="64" height="64">
  <defs>
    <linearGradient id="blueGradient" x1="0%" y1="0%" x2="100%" y2="100%">
      <stop offset="0%" style="stop-color:#2196F3;stop-opacity:1" />
      <stop offset="100%" style="stop-color:#1976D2;stop-opacity:1" />
    </linearGradient>
  </defs>
  
  <!-- Background circle -->
  <circle cx="32" cy="32" r="30" fill="url(#blueGradient)" stroke="#1565C0" stroke-width="2"/>
  
  <!-- Document/Manual icon -->
  <rect x="18" y="14" width="28" height="36" rx="2" fill="white" stroke="#E3F2FD" stroke-width="1"/>
  
  <!-- Lines representing text -->
  <rect x="22" y="20" width="20" height="2" rx="1" fill="#1976D2"/>
  <rect x="22" y="25" width="16" height="2" rx="1" fill="#1976D2"/>
  <rect x="22" y="30" width="18" height="2" rx="1" fill="#1976D2"/>
  
  <!-- Gear icon (manufacturing) -->
  <g transform="translate(28, 36) scale(0.8)">
    <circle cx="8" cy="8" r="3" fill="#FF9800"/>
    <path d="M8,0 L10,2 L8,4 L6,2 Z" fill="#F57C00"/>
    <path d="M16,8 L14,6 L12,8 L14,10 Z" fill="#F57C00"/>
    <path d="M8,16 L6,14 L8,12 L10,14 Z" fill="#F57C00"/>
    <path d="M0,8 L2,10 L4,8 L2,6 Z" fill="#F57C00"/>
  </g>
  
  <!-- Small wrench -->
  <g transform="translate(36, 40) scale(0.6)">
    <rect x="2" y="6" width="8" height="2" rx="1" fill="#4CAF50" transform="rotate(45 6 7)"/>
    <circle cx="3" cy="7" r="1.5" fill="#388E3C"/>
  </g>
</svg>
